<mxfile host="Electron" agent="Mozilla/5.0 (Macintosh; Intel Mac OS X 10_15_7) AppleWebKit/537.36 (KHTML, like Gecko) draw.io/24.7.8 Chrome/128.0.6613.36 Electron/32.0.1 Safari/537.36" version="24.7.8">
  <diagram id="WI9T0HZ2pTsCkuznbFz-" name="Page-1">
    <mxGraphModel dx="1434" dy="778" grid="1" gridSize="10" guides="1" tooltips="1" connect="1" arrows="1" fold="1" page="1" pageScale="1" pageWidth="1169" pageHeight="827" math="0" shadow="0">
      <root>
        <mxCell id="0" />
        <mxCell id="1" parent="0" />
        <mxCell id="dClihzwMC4ZOTnD5rvMF-24" value="" style="rounded=0;whiteSpace=wrap;html=1;fillColor=#dae8fc;strokeColor=#6c8ebf;" vertex="1" parent="1">
          <mxGeometry x="970" y="50" width="120" height="380" as="geometry" />
        </mxCell>
        <mxCell id="dClihzwMC4ZOTnD5rvMF-15" value="" style="rounded=0;whiteSpace=wrap;html=1;fillColor=#d5e8d4;strokeColor=#82b366;movable=0;resizable=0;rotatable=0;deletable=0;editable=0;locked=1;connectable=0;" vertex="1" parent="1">
          <mxGeometry x="580" y="50" width="140" height="380" as="geometry" />
        </mxCell>
        <mxCell id="dClihzwMC4ZOTnD5rvMF-6" value="" style="rounded=0;whiteSpace=wrap;html=1;fillColor=#fff2cc;strokeColor=#d6b656;movable=0;resizable=0;rotatable=0;deletable=0;editable=0;locked=1;connectable=0;" vertex="1" parent="1">
          <mxGeometry x="210" y="50" width="230" height="380" as="geometry" />
        </mxCell>
        <mxCell id="dClihzwMC4ZOTnD5rvMF-1" value="cooba-IM" style="image;sketch=0;aspect=fixed;html=1;points=[];align=center;fontSize=12;image=img/lib/mscae/Docker.svg;movable=0;resizable=0;rotatable=0;deletable=0;editable=0;locked=1;connectable=0;" vertex="1" parent="1">
          <mxGeometry x="620" y="120" width="50" height="41" as="geometry" />
        </mxCell>
        <mxCell id="dClihzwMC4ZOTnD5rvMF-2" value="mysql" style="image;sketch=0;aspect=fixed;html=1;points=[];align=center;fontSize=12;image=img/lib/mscae/Azure_Database_for_MySQL_servers.svg;" vertex="1" parent="1">
          <mxGeometry x="1011" y="97" width="38" height="50" as="geometry" />
        </mxCell>
        <mxCell id="dClihzwMC4ZOTnD5rvMF-3" value="clickhouse" style="image;sketch=0;aspect=fixed;html=1;points=[];align=center;fontSize=12;image=img/lib/mscae/Database_General.svg;" vertex="1" parent="1">
          <mxGeometry x="1011" y="186" width="38" height="50" as="geometry" />
        </mxCell>
        <mxCell id="dClihzwMC4ZOTnD5rvMF-4" value="nginx" style="image;sketch=0;aspect=fixed;html=1;points=[];align=center;fontSize=12;image=img/lib/mscae/Route_Filter.svg;movable=0;resizable=0;rotatable=0;deletable=0;editable=0;locked=1;connectable=0;" vertex="1" parent="1">
          <mxGeometry x="370" y="234" width="50" height="42" as="geometry" />
        </mxCell>
        <mxCell id="dClihzwMC4ZOTnD5rvMF-5" value="redis" style="image;sketch=0;aspect=fixed;html=1;points=[];align=center;fontSize=12;image=img/lib/mscae/Cache_Redis_Product.svg;" vertex="1" parent="1">
          <mxGeometry x="1005" y="273" width="50" height="42" as="geometry" />
        </mxCell>
        <mxCell id="dClihzwMC4ZOTnD5rvMF-8" value="Front End" style="text;html=1;align=center;verticalAlign=middle;whiteSpace=wrap;rounded=0;movable=0;resizable=0;rotatable=0;deletable=0;editable=0;locked=1;connectable=0;" vertex="1" parent="1">
          <mxGeometry x="295" y="70" width="60" height="30" as="geometry" />
        </mxCell>
        <mxCell id="dClihzwMC4ZOTnD5rvMF-12" style="edgeStyle=orthogonalEdgeStyle;rounded=0;orthogonalLoop=1;jettySize=auto;html=1;movable=0;resizable=0;rotatable=0;deletable=0;editable=0;locked=1;connectable=0;" edge="1" parent="1" source="dClihzwMC4ZOTnD5rvMF-11" target="dClihzwMC4ZOTnD5rvMF-4">
          <mxGeometry relative="1" as="geometry" />
        </mxCell>
        <mxCell id="dClihzwMC4ZOTnD5rvMF-11" value="cooba-app" style="image;sketch=0;aspect=fixed;html=1;points=[];align=center;fontSize=12;image=img/lib/mscae/App_Services.svg;movable=0;resizable=0;rotatable=0;deletable=0;editable=0;locked=1;connectable=0;" vertex="1" parent="1">
          <mxGeometry x="255" y="230" width="50" height="50" as="geometry" />
        </mxCell>
        <mxCell id="dClihzwMC4ZOTnD5rvMF-16" value="Back End" style="text;html=1;align=center;verticalAlign=middle;whiteSpace=wrap;rounded=0;movable=0;resizable=0;rotatable=0;deletable=0;editable=0;locked=1;connectable=0;" vertex="1" parent="1">
          <mxGeometry x="615" y="70" width="60" height="30" as="geometry" />
        </mxCell>
        <mxCell id="dClihzwMC4ZOTnD5rvMF-17" value="cooba-IM" style="image;sketch=0;aspect=fixed;html=1;points=[];align=center;fontSize=12;image=img/lib/mscae/Docker.svg;movable=0;resizable=0;rotatable=0;deletable=0;editable=0;locked=1;connectable=0;" vertex="1" parent="1">
          <mxGeometry x="620" y="210" width="50" height="41" as="geometry" />
        </mxCell>
        <mxCell id="dClihzwMC4ZOTnD5rvMF-18" value="cooba-IM" style="image;sketch=0;aspect=fixed;html=1;points=[];align=center;fontSize=12;image=img/lib/mscae/Docker.svg;movable=0;resizable=0;rotatable=0;deletable=0;editable=0;locked=1;connectable=0;" vertex="1" parent="1">
          <mxGeometry x="620" y="310" width="50" height="41" as="geometry" />
        </mxCell>
        <mxCell id="dClihzwMC4ZOTnD5rvMF-19" value="" style="shape=flexArrow;endArrow=classic;html=1;rounded=0;" edge="1" parent="1">
          <mxGeometry width="50" height="50" relative="1" as="geometry">
            <mxPoint x="480" y="190" as="sourcePoint" />
            <mxPoint x="530" y="140" as="targetPoint" />
          </mxGeometry>
        </mxCell>
        <mxCell id="dClihzwMC4ZOTnD5rvMF-20" value="" style="shape=flexArrow;endArrow=classic;html=1;rounded=0;" edge="1" parent="1">
          <mxGeometry width="50" height="50" relative="1" as="geometry">
            <mxPoint x="480" y="254.5" as="sourcePoint" />
            <mxPoint x="540" y="254.5" as="targetPoint" />
          </mxGeometry>
        </mxCell>
        <mxCell id="dClihzwMC4ZOTnD5rvMF-21" value="" style="shape=flexArrow;endArrow=classic;html=1;rounded=0;" edge="1" parent="1">
          <mxGeometry width="50" height="50" relative="1" as="geometry">
            <mxPoint x="480" y="315.5" as="sourcePoint" />
            <mxPoint x="530" y="360" as="targetPoint" />
          </mxGeometry>
        </mxCell>
        <mxCell id="dClihzwMC4ZOTnD5rvMF-27" style="edgeStyle=orthogonalEdgeStyle;rounded=0;orthogonalLoop=1;jettySize=auto;html=1;" edge="1" parent="1" source="dClihzwMC4ZOTnD5rvMF-23">
          <mxGeometry relative="1" as="geometry">
            <mxPoint x="720" y="140" as="targetPoint" />
            <Array as="points">
              <mxPoint x="800" y="140" />
            </Array>
          </mxGeometry>
        </mxCell>
        <mxCell id="dClihzwMC4ZOTnD5rvMF-28" style="edgeStyle=orthogonalEdgeStyle;rounded=0;orthogonalLoop=1;jettySize=auto;html=1;" edge="1" parent="1">
          <mxGeometry relative="1" as="geometry">
            <mxPoint x="720" y="239.995" as="targetPoint" />
            <mxPoint x="820" y="240.10000000000002" as="sourcePoint" />
          </mxGeometry>
        </mxCell>
        <mxCell id="dClihzwMC4ZOTnD5rvMF-29" style="edgeStyle=orthogonalEdgeStyle;rounded=0;orthogonalLoop=1;jettySize=auto;html=1;" edge="1" parent="1" source="dClihzwMC4ZOTnD5rvMF-23">
          <mxGeometry relative="1" as="geometry">
            <mxPoint x="720" y="330" as="targetPoint" />
            <Array as="points">
              <mxPoint x="800" y="240" />
              <mxPoint x="800" y="330" />
            </Array>
          </mxGeometry>
        </mxCell>
        <mxCell id="dClihzwMC4ZOTnD5rvMF-23" value="MQ&lt;br&gt;(activeMQ/Kafka)" style="sketch=0;outlineConnect=0;fontColor=#232F3E;gradientColor=none;fillColor=#E7157B;strokeColor=none;dashed=0;verticalLabelPosition=bottom;verticalAlign=top;align=center;html=1;fontSize=12;fontStyle=0;aspect=fixed;pointerEvents=1;shape=mxgraph.aws4.mq_broker;" vertex="1" parent="1">
          <mxGeometry x="820" y="213.46" width="60" height="53.07" as="geometry" />
        </mxCell>
        <mxCell id="dClihzwMC4ZOTnD5rvMF-25" value="minio" style="image;sketch=0;aspect=fixed;html=1;points=[];align=center;fontSize=12;image=img/lib/mscae/Database_General.svg;" vertex="1" parent="1">
          <mxGeometry x="1011" y="351" width="38" height="50" as="geometry" />
        </mxCell>
        <mxCell id="dClihzwMC4ZOTnD5rvMF-26" value="" style="shape=flexArrow;endArrow=classic;html=1;rounded=0;" edge="1" parent="1">
          <mxGeometry width="50" height="50" relative="1" as="geometry">
            <mxPoint x="840" y="380" as="sourcePoint" />
            <mxPoint x="930" y="380" as="targetPoint" />
          </mxGeometry>
        </mxCell>
        <mxCell id="dClihzwMC4ZOTnD5rvMF-32" value="Database" style="text;html=1;align=center;verticalAlign=middle;whiteSpace=wrap;rounded=0;" vertex="1" parent="1">
          <mxGeometry x="1000" y="60" width="60" height="30" as="geometry" />
        </mxCell>
        <mxCell id="dClihzwMC4ZOTnD5rvMF-33" value="" style="shape=flexArrow;endArrow=classic;html=1;rounded=0;" edge="1" parent="1">
          <mxGeometry width="50" height="50" relative="1" as="geometry">
            <mxPoint x="840" y="90" as="sourcePoint" />
            <mxPoint x="930" y="90" as="targetPoint" />
          </mxGeometry>
        </mxCell>
        <mxCell id="dClihzwMC4ZOTnD5rvMF-38" style="edgeStyle=orthogonalEdgeStyle;rounded=0;orthogonalLoop=1;jettySize=auto;html=1;" edge="1" parent="1" source="dClihzwMC4ZOTnD5rvMF-37">
          <mxGeometry relative="1" as="geometry">
            <mxPoint x="650" y="430" as="targetPoint" />
          </mxGeometry>
        </mxCell>
        <mxCell id="dClihzwMC4ZOTnD5rvMF-39" style="edgeStyle=orthogonalEdgeStyle;rounded=0;orthogonalLoop=1;jettySize=auto;html=1;" edge="1" parent="1" source="dClihzwMC4ZOTnD5rvMF-37">
          <mxGeometry relative="1" as="geometry">
            <mxPoint x="280" y="440" as="targetPoint" />
          </mxGeometry>
        </mxCell>
        <mxCell id="dClihzwMC4ZOTnD5rvMF-37" value="livekit" style="image;sketch=0;aspect=fixed;html=1;points=[];align=center;fontSize=12;image=img/lib/mscae/Non_Azure_Machine.svg;" vertex="1" parent="1">
          <mxGeometry x="490" y="500" width="31" height="50" as="geometry" />
        </mxCell>
      </root>
    </mxGraphModel>
  </diagram>
</mxfile>
